<svg width="32" height="32" viewBox="0 0 32 32" fill="none" xmlns="http://www.w3.org/2000/svg">
<path d="M32 15.9996C32 7.16352 24.836 -0.000488281 16 -0.000488281C7.164 -0.000488281 0 7.16352 0 15.9996C0 23.9862 5.85067 30.6049 13.5 31.8049V20.6249H9.43733V15.9982H13.5V12.4756C13.5 8.46617 15.8893 6.25017 19.544 6.25017C21.2933 6.25017 23.1253 6.56351 23.1253 6.56351V10.5009H21.1067C19.1187 10.5009 18.4987 11.7342 18.4987 12.9996V15.9996H22.936L22.2267 20.6262H18.4987V31.8062C26.1493 30.6049 32 23.9849 32 15.9996Z" fill="url(#paint0_linear_9_112)"/>
<defs>
<linearGradient id="paint0_linear_9_112" x1="16" y1="-0.000488281" x2="16" y2="31.8062" gradientUnits="userSpaceOnUse">
<stop stop-color="#FFC700"/>
<stop offset="1" stop-color="#EA8C00"/>
</linearGradient>
</defs>
</svg>
