<svg width="32" height="32" viewBox="0 0 32 32" fill="none" xmlns="http://www.w3.org/2000/svg">
<path d="M16 0.000488281C11.6533 0.000488281 11.1107 0.0204874 9.404 0.0964839C7.7 0.17648 6.54 0.444468 5.52 0.84045C4.468 1.24843 3.57467 1.79641 2.68533 2.6857C1.796 3.57499 1.24667 4.46695 0.84 5.52024C0.444 6.54019 0.174667 7.70014 0.096 9.40406C0.016 11.1107 0 11.6533 0 15.9998C0 20.3463 0.02 20.8888 0.096 22.5955C0.176 24.2981 0.444 25.4593 0.84 26.4793C1.248 27.5299 1.796 28.4245 2.68533 29.3138C3.57467 30.2018 4.46667 30.7524 5.52 31.1591C6.54133 31.5537 7.70133 31.8243 9.404 31.903C11.1107 31.983 11.6533 31.999 16 31.999C20.3467 31.999 20.8893 31.979 22.596 31.903C24.2987 31.823 25.46 31.5537 26.48 31.1591C27.5307 30.7511 28.4253 30.2018 29.3147 29.3138C30.2027 28.4245 30.7533 27.5339 31.16 26.4793C31.5547 25.4593 31.8253 24.2981 31.904 22.5955C31.984 20.8888 32 20.3463 32 15.9998C32 11.6533 31.98 11.1107 31.904 9.40406C31.824 7.70147 31.5547 6.53886 31.16 5.52024C30.752 4.46828 30.2027 3.57499 29.3147 2.6857C28.4253 1.79641 27.5347 1.2471 26.48 0.84045C25.46 0.444468 24.2987 0.175147 22.596 0.0964839C20.8893 0.0164876 20.3467 0.000488281 16 0.000488281ZM16 2.88036C20.2707 2.88036 20.78 2.90169 22.4667 2.97502C24.0267 3.04835 24.8733 3.30701 25.436 3.52833C26.1853 3.81764 26.716 4.1643 27.2787 4.72294C27.8373 5.28292 28.184 5.81489 28.4733 6.56419C28.692 7.12683 28.9533 7.97345 29.024 9.53338C29.1 11.2213 29.1173 11.728 29.1173 15.9998C29.1173 20.2716 29.0973 20.7795 29.0187 22.4662C28.9373 24.0261 28.6773 24.8727 28.4573 25.4353C28.1587 26.1846 27.8187 26.7153 27.2587 27.2779C26.7 27.8365 26.16 28.1832 25.4187 28.4725C24.8587 28.6912 23.9987 28.9525 22.4387 29.0232C20.74 29.0992 20.24 29.1165 15.96 29.1165C11.6787 29.1165 11.1787 29.0965 9.48133 29.0179C7.92 28.9365 7.06 28.6765 6.5 28.4565C5.74133 28.1579 5.22 27.8179 4.66133 27.2579C4.1 26.6993 3.74133 26.1593 3.46133 25.418C3.24133 24.858 2.98267 23.9981 2.90133 22.4382C2.84133 20.7582 2.82 20.2396 2.82 15.9798C2.82 11.7187 2.84133 11.1987 2.90133 9.49872C2.98267 7.93879 3.24133 7.08016 3.46133 6.52019C3.74133 5.76022 4.1 5.24025 4.66133 4.67894C5.22 4.1203 5.74133 3.76032 6.5 3.48166C7.06 3.26034 7.90133 3.00035 9.46133 2.92035C11.1613 2.86036 11.6613 2.84036 15.94 2.84036L16 2.88036ZM16 7.78413C11.46 7.78413 7.784 11.464 7.784 15.9998C7.784 20.5395 11.464 24.2154 16 24.2154C20.54 24.2154 24.216 20.5355 24.216 15.9998C24.216 11.46 20.536 7.78413 16 7.78413ZM16 21.3328C13.0533 21.3328 10.6667 18.9463 10.6667 15.9998C10.6667 13.0532 13.0533 10.6667 16 10.6667C18.9467 10.6667 21.3333 13.0532 21.3333 15.9998C21.3333 18.9463 18.9467 21.3328 16 21.3328ZM26.4613 7.46015C26.4613 8.5201 25.6 9.38006 24.5413 9.38006C23.4813 9.38006 22.6213 8.51877 22.6213 7.46015C22.6213 6.40153 23.4827 5.54156 24.5413 5.54156C25.5987 5.54023 26.4613 6.40153 26.4613 7.46015Z" fill="url(#paint0_linear_9_114)"/>
<defs>
<linearGradient id="paint0_linear_9_114" x1="16" y1="0.000488281" x2="16" y2="31.999" gradientUnits="userSpaceOnUse">
<stop stop-color="#FFC700"/>
<stop offset="1" stop-color="#EA8C00"/>
</linearGradient>
</defs>
</svg>
