<svg width="24" height="24" viewBox="0 0 24 24" fill="none" xmlns="http://www.w3.org/2000/svg">
<path d="M19 6.54521H18.18L16.48 1.43976C16.3393 1.01878 16.0836 0.655011 15.7474 0.397519C15.4112 0.140027 15.0108 0.00119763 14.6 -0.000244141H13C12.45 -0.000244141 12 0.490665 12 1.09066C12 1.69067 12.45 2.18157 13 2.18157H14.6L16.06 6.54521H11.25L10.89 5.4543H10.98C11.53 5.4543 11.98 4.96339 11.98 4.36339C11.98 3.76339 11.53 3.27248 10.98 3.27248H8C7.45 3.27248 7 3.76339 7 4.36339C7 4.96339 7.45 5.4543 8 5.4543H8.75L10.57 10.9088H9.9C9.46 8.47612 7.59 6.67612 5.25 6.55612C2.45 6.40339 0 8.94521 0 11.9998C0 15.0543 2.2 17.4543 5 17.4543C7.46 17.4543 9.45 15.6107 9.9 13.0907H14.1C14.54 15.5234 16.41 17.3234 18.75 17.4434C21.55 17.5852 24 15.0543 24 11.9888C24 8.94521 21.8 6.54521 19 6.54521ZM6 13.0907H7.82C7.4 14.4325 6.22 15.3598 4.8 15.2616C3.31 15.1634 2.07 13.7888 2 12.1525C1.93 10.2434 3.27 8.72703 5 8.72703C6.33 8.72703 7.42 9.63248 7.82 10.9088H6C5.45 10.9088 5 11.3998 5 11.9998C5 12.5998 5.45 13.0907 6 13.0907ZM14.1 10.9088H12.7L11.97 8.72703H15C14.56 9.35976 14.24 10.0907 14.1 10.9088ZM18.88 15.2725C17.34 15.207 16.04 13.7779 16 12.087C15.98 11.0398 16.39 10.1234 17.05 9.51248L17.67 11.367C17.86 11.9343 18.43 12.2288 18.95 12.0216C19.47 11.8143 19.74 11.1925 19.55 10.6252L18.92 8.73794L18.93 8.72703C19.3309 8.71211 19.7305 8.78599 20.1045 8.9442C20.4785 9.10242 20.8193 9.34168 21.1062 9.64754C21.3932 9.95341 21.6203 10.3195 21.7739 10.7238C21.9275 11.1281 22.0044 11.5621 22 11.9998C22 13.8761 20.62 15.3379 18.88 15.2725ZM11 20.727H7L13 23.9998V21.8179H17L11 18.5452V20.727Z" fill="url(#paint0_linear_4_51)"/>
<defs>
<linearGradient id="paint0_linear_4_51" x1="12" y1="-0.000244141" x2="12" y2="23.9998" gradientUnits="userSpaceOnUse">
<stop stop-color="#FFC700"/>
<stop offset="1" stop-color="#EA8C00"/>
</linearGradient>
</defs>
</svg>
