<svg width="24" height="24" viewBox="0 0 24 24" fill="none" xmlns="http://www.w3.org/2000/svg">
<path d="M12 7.63636C9.58909 7.63636 7.63636 9.58909 7.63636 12C7.63636 14.4109 9.58909 16.3636 12 16.3636C14.4109 16.3636 16.3636 14.4109 16.3636 12C16.3636 9.58909 14.4109 7.63636 12 7.63636ZM21.7527 10.9091C21.5056 8.69686 20.5136 6.63441 18.9396 5.06039C17.3656 3.48638 15.3031 2.49438 13.0909 2.24727V1.09091C13.0909 0.490909 12.6 0 12 0C11.4 0 10.9091 0.490909 10.9091 1.09091V2.24727C8.69686 2.49438 6.63441 3.48638 5.06039 5.06039C3.48638 6.63441 2.49438 8.69686 2.24727 10.9091H1.09091C0.490909 10.9091 0 11.4 0 12C0 12.6 0.490909 13.0909 1.09091 13.0909H2.24727C2.49438 15.3031 3.48638 17.3656 5.06039 18.9396C6.63441 20.5136 8.69686 21.5056 10.9091 21.7527V22.9091C10.9091 23.5091 11.4 24 12 24C12.6 24 13.0909 23.5091 13.0909 22.9091V21.7527C15.3031 21.5056 17.3656 20.5136 18.9396 18.9396C20.5136 17.3656 21.5056 15.3031 21.7527 13.0909H22.9091C23.5091 13.0909 24 12.6 24 12C24 11.4 23.5091 10.9091 22.9091 10.9091H21.7527ZM12 19.6364C7.77818 19.6364 4.36364 16.2218 4.36364 12C4.36364 7.77818 7.77818 4.36364 12 4.36364C16.2218 4.36364 19.6364 7.77818 19.6364 12C19.6364 16.2218 16.2218 19.6364 12 19.6364Z" fill="url(#paint0_linear_4_49)"/>
<defs>
<linearGradient id="paint0_linear_4_49" x1="12" y1="0" x2="12" y2="24" gradientUnits="userSpaceOnUse">
<stop stop-color="#FFC700"/>
<stop offset="1" stop-color="#EA8C00"/>
</linearGradient>
</defs>
</svg>
