<svg width="32" height="23" viewBox="0 0 32 23" fill="none" xmlns="http://www.w3.org/2000/svg">
<path d="M31.3307 3.5213C31.1499 2.84034 30.7934 2.21883 30.2968 1.719C29.8003 1.21918 29.1811 0.85858 28.5013 0.673332C26.0067 -1.78812e-07 16 0 16 0C16 0 5.99333 -1.78812e-07 3.49733 0.673332C2.81788 0.85891 2.19906 1.21964 1.70277 1.71942C1.20648 2.21922 0.850122 2.84056 0.669333 3.5213C0 6.03327 0 11.2732 0 11.2732C0 11.2732 0 16.5132 0.669333 19.0251C0.850115 19.7061 1.20663 20.3276 1.70319 20.8274C2.19974 21.3272 2.8189 21.6878 3.49867 21.8731C5.99333 22.5464 16 22.5464 16 22.5464C16 22.5464 26.0067 22.5464 28.5027 21.8731C29.1825 21.688 29.8017 21.3274 30.2983 20.8276C30.7949 20.3277 31.1513 19.7061 31.332 19.0251C32 16.5132 32 11.2732 32 11.2732C32 11.2732 32 6.03327 31.3307 3.5213ZM12.7267 16.0305V6.51597L21.0907 11.2732L12.7267 16.0305Z" fill="url(#paint0_linear_9_116)"/>
<defs>
<linearGradient id="paint0_linear_9_116" x1="16" y1="0" x2="16" y2="22.5464" gradientUnits="userSpaceOnUse">
<stop stop-color="#FFC700"/>
<stop offset="1" stop-color="#EA8C00"/>
</linearGradient>
</defs>
</svg>
